# xmcd
#
# Track frame offsets:
#	150
#	2902
#	20302
#	35355
#	54527
#	73141
#
# Disc length: 1214 seconds
# Revision: 0
# Processed by: cddbd v1.5.2PL0 Copyright (c) Steve Scherf et al.
# Submitted via: dBpowerAMP V12.0
#
DISCID=4704bc06
DTITLE=Steve Young - The Great North Road EP
DYEAR=2017
DGENRE=Alternative Country
TTITLE0=Inhale
TTITLE1=Trembling Heart
TTITLE2=Hard Times In A Beautiful Place
TTITLE3=The Great North Road
TTITLE4=Beautiful Tonight
TTITLE5=The Greatest Love Song (Of All Time)
EXTD=
EXTT0=
EXTT1=
EXTT2=
EXTT3=
EXTT4=
EXTT5=
PLAYORDER=
